<svg width="30" height="30" viewBox="0 0 30 30" fill="none" xmlns="http://www.w3.org/2000/svg">
<path d="M28.3414 13.857C27.8542 12.9922 26.9706 12.4547 26.0361 12.4547C25.6354 12.4547 25.2414 12.5573 24.8969 12.7516L23.2005 13.7069C23.2122 13.861 23.2049 14.0077 23.1814 14.149C23.1482 14.3475 23.077 14.5302 22.9723 14.6973L25.2659 13.4056C25.5068 13.2695 25.7707 13.2054 26.0366 13.2054C26.6754 13.2054 27.3234 13.5783 27.688 14.2254C28.2036 15.1413 28.4988 16.2737 27.6763 16.7369L21.1161 21.3642C21.0711 22.0841 20.9519 22.9134 20.6733 23.5175C20.496 23.4432 20.3068 23.3923 20.1084 23.3817L16.4313 23.1764C16.401 23.3074 16.3672 23.4315 16.3271 23.5464C16.3075 23.6025 16.2836 23.6529 16.2617 23.7062C16.3658 23.7697 16.4586 23.8489 16.5446 23.9349L20.0668 24.1314C20.1147 24.1343 20.1601 24.1441 20.2056 24.1533C20.3474 24.1821 20.4784 24.2398 20.5888 24.3229C20.69 24.3996 20.7741 24.4959 20.8381 24.6054C20.9291 24.7607 20.9775 24.9435 20.9662 25.1371L20.8069 27.9932C20.778 28.5005 20.3577 28.8935 19.8553 28.8935C19.8373 28.8935 19.8191 28.8925 19.8016 28.8915L17.1732 28.7448C17.1155 28.8758 17.0451 28.9999 16.9548 29.1089C16.8375 29.2501 16.6953 29.3684 16.5344 29.4613L19.7601 29.6411C19.7919 29.643 19.8241 29.644 19.8559 29.644C20.759 29.644 21.5063 28.9373 21.5567 28.0341L21.716 25.178C21.7415 24.7302 21.591 24.2996 21.2963 23.9624C21.5738 23.4239 21.7546 22.7011 21.8387 21.7735L28.0832 17.3696C28.8995 16.8825 29.3873 15.7134 28.3414 13.857Z" fill="white"/>
<path d="M22.2744 11.705C22.3511 11.8022 22.4122 11.8968 22.4793 11.9924C22.6121 12.1811 22.7275 12.3658 22.8238 12.5474C22.856 11.9218 22.9025 11.236 22.9733 10.4977L23.0598 9.59129L23.0271 9.59422L23.4346 5.23967C23.5284 4.60721 23.3848 3.97456 23.0289 3.45555C22.66 2.91747 22.1077 2.5658 21.4753 2.46519C21.356 2.44612 21.2343 2.43659 21.1136 2.43659C20.6513 2.43659 20.2173 2.57118 19.8493 2.80799C19.6772 1.67662 18.7525 0.789042 17.6069 0.742606C17.5757 0.74119 17.5439 0.740623 17.5131 0.740623C16.544 0.740623 15.7097 1.3376 15.3403 2.20384C15.3179 2.18525 15.2924 2.17185 15.2704 2.1542C15.3637 2.38194 15.4137 2.62564 15.4341 2.87651C15.439 2.94003 15.4522 3.00166 15.4526 3.06565L15.657 6.29902L15.8876 3.13304C15.9252 2.21281 16.6461 1.49068 17.5122 1.49068C17.5332 1.49068 17.5546 1.49116 17.5757 1.4922C18.4701 1.52863 19.1635 2.32248 19.1249 3.2648L18.9563 7.40793L19.4876 4.63911C19.622 3.79306 20.3237 3.18656 21.1126 3.18656C21.1932 3.18656 21.2744 3.19316 21.356 3.2061C22.2396 3.34682 22.8364 4.21552 22.6882 5.14727L22.1941 10.4282L22.2249 10.4253C22.1878 10.8141 22.1585 11.1845 22.1325 11.5452C22.1817 11.598 22.23 11.649 22.2744 11.705Z" fill="white"/>
<path d="M1.10378 7.21086L2.5501 13.3805C2.61362 13.6513 2.74925 13.8839 2.92499 14.0752C3.00616 15.1162 3.08658 16.2784 3.08658 16.7798C3.08658 17.6908 4.9445 23.4275 6.26209 24.6248C6.47842 24.4635 6.73542 24.352 7.02234 24.3238L10.8542 23.9367L11.1765 23.9039L11.3143 23.8897L11.6716 23.8541L11.9367 23.8273L12.5127 23.7696L12.8947 23.731L15.2926 23.4891L15.3014 23.4881C15.3537 23.4823 15.4059 23.4798 15.4573 23.4798C15.5672 23.4798 15.6742 23.4939 15.7783 23.5155C15.7851 23.5175 15.791 23.5194 15.7984 23.5214C15.7988 23.5194 15.7999 23.5184 15.8003 23.5165C15.8488 23.4016 15.8898 23.2789 15.923 23.148C16.0985 22.4594 16.0839 21.5811 16.0119 20.8247L22.0121 15L22.296 14.7243C22.3639 14.6703 22.4201 14.6112 22.4705 14.5501C22.8366 14.1026 22.7368 13.4798 22.432 12.8676C22.3342 12.6723 22.2159 12.4787 22.0859 12.2922C22.0205 12.1981 21.953 12.1059 21.8816 12.0163C21.4475 11.4678 20.8207 11.1756 20.2145 11.1756C19.8271 11.1756 19.4473 11.2951 19.1321 11.5444L15.9387 14.0711C15.775 13.1038 15.494 11.2005 15.3497 8.84953L15.317 8.85784L14.9525 3.08208C14.9525 3.00515 14.9399 2.93153 14.9309 2.8565C14.9069 2.64829 14.8535 2.45207 14.7703 2.27076C14.6793 2.07331 14.5601 1.89398 14.4126 1.74297C14.0947 1.41867 13.6644 1.21707 13.1874 1.21631C13.187 1.21631 13.1859 1.21631 13.1855 1.21631C12.2099 1.21631 11.4189 2.04915 11.4178 3.07821L11.3652 4.65969L11.3527 5.0375L11.3397 5.4224L11.3153 6.15254L11.227 5.39578L11.183 5.01608L11.139 4.63732L10.7928 1.6585C10.6821 0.705513 9.90744 0 9.0175 0C8.95257 0 8.88754 0.00339779 8.82175 0.0114203C7.85188 0.124114 7.16231 1.04435 7.28152 2.0668L7.69322 6.98264L6.91295 3.06254C6.7458 2.22149 6.06275 1.6298 5.31798 1.6298C5.22709 1.6298 5.13497 1.63887 5.04276 1.65699C4.19746 1.82508 3.66458 2.72672 3.85221 3.67121L4.78641 9.24934L4.14206 6.49874C3.97321 5.77963 3.33225 5.29403 2.6241 5.29403C2.50612 5.29403 2.38635 5.30772 2.26686 5.33556C1.42808 5.53188 0.907085 6.3717 1.10378 7.21086Z" fill="white"/>
<path d="M16.8047 28.0206L16.5144 25.146L16.4914 24.9161C16.486 24.8634 16.4738 24.8136 16.4611 24.7637C16.4236 24.6141 16.3546 24.4793 16.2618 24.3649C16.1933 24.2808 16.1137 24.2095 16.0233 24.1503C15.9515 24.1029 15.8732 24.0662 15.7906 24.0384C15.7002 24.0071 15.6044 23.9895 15.5053 23.9842C15.4897 23.9832 15.474 23.9798 15.4578 23.9798C15.4232 23.9798 15.388 23.9813 15.3523 23.9852L14.2696 24.0942L12.9033 24.2324L11.7538 24.3483L11.4904 24.3752L11.0967 24.4148L10.7128 24.4529L7.07211 24.8204C7.00444 24.8272 6.93998 24.8415 6.8774 24.8601C6.73932 24.9015 6.61379 24.97 6.50742 25.0599C6.43607 25.1195 6.37642 25.1918 6.32347 25.2681C6.18831 25.464 6.11573 25.7041 6.14169 25.9592L6.45494 29.0645C6.50921 29.6002 6.96103 29.9999 7.4891 29.9999C7.52402 29.9999 7.55894 29.9989 7.59471 29.995L14.1961 29.3284L15.8745 29.1589C15.9927 29.1466 16.1017 29.1119 16.2039 29.0645C16.3744 28.9858 16.5176 28.8636 16.6222 28.7117C16.7578 28.5172 16.8306 28.2768 16.8047 28.0206ZM11.3211 26.832C11.1874 26.8774 11.0579 26.9229 10.9378 26.9683C10.7953 27.0226 10.6692 27.0764 10.5531 27.1306C10.3139 27.2416 10.1341 27.35 10.0624 27.4517C9.63924 28.0514 10.6276 28.3548 10.6276 28.3548C9.63065 28.1716 8.59772 27.7078 9.38289 26.5871C9.59204 26.2885 10.0541 26.1096 10.6157 26.0035C10.7381 25.9806 10.8638 25.96 10.995 25.9439C11.1191 25.9288 11.2447 25.9151 11.3732 25.9043C12.8235 25.7899 14.4877 25.9914 14.4877 25.9914C14.4877 25.9914 12.6385 26.3893 11.3211 26.832Z" fill="white"/>
</svg>
